<?xml version="1.0" encoding="utf-8"?>
<!-- Generator: Adobe Illustrator 21.0.0, SVG Export Plug-In . SVG Version: 6.00 Build 0)  -->
<svg version="1.1" id="Layer_1" xmlns="http://www.w3.org/2000/svg" xmlns:xlink="http://www.w3.org/1999/xlink" x="0px" y="0px"
	 viewBox="0 0 374.84 374.84" style="enable-background:new 0 0 374.84 374.84;" xml:space="preserve">
<style type="text/css">
	.st0{fill:#DB222E;}
	.st1{fill:#E7E7E7;}
</style>
<g>
	<g>
		<path id="XMLID_27_" class="st0" d="M126.674,294.899c37.419-4.041,74.454-16.6,106.19-36.981
			c11.832-7.599,23.077-16.978,32.768-27.152c11.325-11.888,23.103-27.088,28.292-42.821c-16.617,29.1-45.561,50.287-76.024,63.09
			c-32.33,13.587-70.53,19.57-104.608,8.976c-28.211-8.77-50.85-30.96-49.957-62.044c0.694-24.159,14.319-45.827,30.115-63.23
			c24.6-27.103,59.088-48.399,94.153-58.948c-60.325,5.984-123.653,35.596-161.842,83.685c-13.705,17.258-24.74,38.232-25.7,60.649
			c-0.968,22.589,9.801,43.19,28.094,56.295C56.385,296.644,93.353,298.495,126.674,294.899
			C135.217,293.977,118.71,295.759,126.674,294.899z"/>
	</g>
	<g>
		<path id="XMLID_25_" class="st1" d="M274.465,78.047c-42.274,0.381-82.862,11.181-120.123,31.651
			c-15.217,8.36-29.292,18.455-41.671,30.663c-12.811,12.634-26.174,29.303-31.723,46.623c15.98-28.124,43.597-48.847,72.78-61.77
			c31.283-13.853,67.811-20.391,101.503-12.227c25.056,6.071,47.41,21.217,54.7,46.783c8.755,30.704-11.01,61.9-31.458,83.286
			c-24.621,25.749-58.251,45.975-92.468,55.993c59.122-5.391,120.563-33.456,159.566-79.001
			c26.92-31.436,44.381-80.11,10.814-113.697C335.294,85.25,303.292,78.459,274.465,78.047
			C265.083,78.132,320.619,78.707,274.465,78.047z"/>
	</g>
</g>
</svg>
