<?xml version="1.0" encoding="utf-8"?>
<!-- Generator: Adobe Illustrator 22.0.1, SVG Export Plug-In . SVG Version: 6.00 Build 0)  -->
<svg version="1.1" id="Layer_1" xmlns="http://www.w3.org/2000/svg" xmlns:xlink="http://www.w3.org/1999/xlink" x="0px" y="0px"
	 viewBox="0 0 40 40" style="enable-background:new 0 0 40 40;" xml:space="preserve">
<style type="text/css">
	.st0{fill:#A31D1B;}
</style>
<g>
	<g>
		<g id="XMLID_16_">
			<path class="st0" d="M37.2,5.4C35.5,0.3,27.5,0,20,0C12.5,0,4.4,0.3,2.7,5.4C1,10.8,1.8,24.5,1.8,24.5C1.8,30.3,17.1,40,20,40
				s18-9.7,18.2-15.5C38.3,19.7,39,10.8,37.2,5.4z M34.5,22.8c-0.2,4-11.2,12.8-14.5,12.8S5.4,26.8,5.4,22.8c0-3-0.8-12,0.7-14.9
				C8.6,3.4,16.5,3.7,20,3.7c3.5,0,11.4-0.3,13.8,4.1C35.3,10.8,34.7,19.6,34.5,22.8z"/>
		</g>
	</g>
	<g id="XMLID_14_">
		<path class="st0" d="M20,2.8c-0.3,0-0.6,0.2-0.8,0.5l-4.5,8.3l-9.2,1.6c-0.3,0.1-0.6,0.3-0.7,0.6c-0.1,0.3,0,0.7,0.2,0.9l6.6,7
			l-1.3,9c-0.1,0.3,0.1,0.7,0.4,0.9c0.2,0.1,0.3,0.2,0.5,0.2c0.1,0,0.3,0,0.4-0.1l8.5-4.1l8.5,4.1c0.1,0.1,0.3,0.1,0.4,0.1
			c0.2,0,0.4-0.1,0.5-0.2c0.3-0.2,0.4-0.5,0.4-0.9l-1.3-9.3l6.6-6.7c0.2-0.3,0.3-0.6,0.2-0.9c-0.1-0.3-0.4-0.6-0.7-0.6l-9.3-1.6
			l-4.4-8.3C20.7,3,20.4,2.8,20,2.8L20,2.8L20,2.8z"/>
	</g>
</g>
</svg>
