<?xml version="1.0" encoding="utf-8"?>
<!-- Generator: Adobe Illustrator 21.0.0, SVG Export Plug-In . SVG Version: 6.00 Build 0)  -->
<svg version="1.1" id="Layer_1" xmlns="http://www.w3.org/2000/svg" xmlns:xlink="http://www.w3.org/1999/xlink" x="0px" y="0px"
	 viewBox="0 0 141.8 141.8" style="enable-background:new 0 0 141.8 141.8;" xml:space="preserve">
<style type="text/css">
	.st0{fill:#1D1D1B;}
</style>
<path class="st0" d="M66.8,28.4h42c2.6,0,4.7-2.1,4.7-4.7v-19c0-2.6-2.1-4.7-4.7-4.7h-52l0,0C41,0,28.2,12.8,28.2,28.6v27.8
	C28.2,72.2,41,85,56.8,85l0,0h28v56.8l0,0c15.9,0,28.8-12.9,28.8-28.8V84.9V65.6v-4.4c0-2.6-2.1-4.7-4.7-4.7h-42
	c-8.1,0-10-3.5-10-12.4v-3.3C56.8,31.8,58.7,28.4,66.8,28.4z"/>
</svg>
