<?xml version="1.0" encoding="utf-8"?>
<!-- Generator: Adobe Illustrator 21.0.0, SVG Export Plug-In . SVG Version: 6.00 Build 0)  -->
<svg version="1.1" id="Layer_1" xmlns="http://www.w3.org/2000/svg" xmlns:xlink="http://www.w3.org/1999/xlink" x="0px" y="0px"
	 viewBox="0 0 140.92 140.92" style="enable-background:new 0 0 140.92 140.92;" xml:space="preserve">
<style type="text/css">
	.st0{fill:#060403;}
	.st1{fill:#F05E07;}
	.st2{fill:#FDFDFD;}
	.st3{display:none;fill:#F05E07;}
</style>
<g>
	<path class="st0" d="M127.56,82.218c-4.2,1-8.3,2-12.5,3c-0.4,0.1-0.8,0.2-1.2,0.3c-0.5,0.2-1,0.3-1.5,0.4
		c-5.2,1.1-10.3,2.5-15.5,3.6c13.8-23.7,27.4-47.5,41-71.3c-1.6-0.9-3.3-1.7-5-2.5c-2.5-1.2-5-2.3-7.5-3.4c-0.7-0.3-1.3-0.5-2-0.8
		c-0.5-0.2-0.9-0.4-1.4-0.6c-2-0.7-4-1.5-6-2.2c-0.4-0.1-0.7-0.2-1.1-0.4c-0.2,0-0.5-0.1-0.6-0.1c-3.1-1.2-6.4-2.2-9.6-3.1
		c-0.3,0-0.6-0.1-0.9-0.2c-8.1-2.3-16.4-3.9-24.8-4.6c-7.1-0.6-14.2-0.3-21.3,0.5c-6.8,0.8-13.5,2.2-20.1,3.9
		c-3.8,1.1-7.6,2.3-11.4,3.6c-0.6,0.2-1.1,0.4-1.7,0.6c-2,0.7-3.9,1.5-5.9,2.3c-0.6,0.3-1.1,0.5-1.7,0.7c-4.7,2-9.3,4-13.8,6.4
		c5.4,9.4,10.8,18.8,16.4,28.1c0.2,0.3,0.5,0.7,0.3,1c-0.9,1.6-1.8,3.2-2.5,4.9c0.4,1.2,1,2.4,1.3,3.7c-0.1,1.3-0.9,2.5-1.5,3.6
		c-1.5,2.6-3.2,5.1-4.2,8c-0.5,1.2-0.7,2.4-1,3.6c-0.9,3.4-2.5,6.6-3.5,10c-0.4,1.6-0.7,3.4,0,5c0.7,1.8,1.6,3.4,3,4.7
		c0.7,0.7,1.7,0.5,2.5,1c2.4,1.3,4.3,3.4,6.5,5.1c3,2.2,6,4.4,9.6,5.5c1.2,0.3,2.5,0.7,3.7,0.3c2.1-0.5,4.1-1.3,6.1-2.1
		c0.5-0.2,0.9-0.4,1.4-0.6c2.5-1.1,4.8-2.4,7.2-3.6c0.9,1.3,1.6,2.7,2.4,4c-3.7,0.8-7.3,1.8-11,2.6c-0.8,0.3-1.6,0.5-2.4,0.6
		c-4.2,1-8.3,2-12.5,3c-0.8,0.2-1.6,0.4-2.4,0.5c-0.4,0.2-0.9,0.3-1.4,0.4c-2.7,0.6-5.3,1.3-7.9,1.9c0,10.4,0,20.9,0,31.4
		c1.2-0.3,2.5-0.6,3.7-0.9c1.3-0.3,2.5-0.6,3.8-0.9c0.4-0.1,0.8-0.2,1.2-0.3c2.9-0.6,5.7-1.3,8.6-2c1.7-0.4,3.4-0.8,5.1-1.2
		c0.4-0.1,0.8-0.2,1.2-0.3c4.2-1,8.3-2,12.5-3c0.4-0.1,0.8-0.2,1.2-0.3c0.4-0.1,0.8-0.2,1.2-0.3c3.2-0.7,6.4-1.6,9.6-2.3
		c0.4-0.1,0.8-0.2,1.2-0.3c1.4-0.3,2.8-0.7,4.2-0.9c1.4,2.2,2.7,4.5,4,6.8c1.7-3,3.6-5.9,5.2-9c0.5-0.1,1-0.3,1.5-0.4
		c0.4-0.1,0.8-0.2,1.2-0.3c5-1.1,9.9-2.4,14.9-3.5c0.4-0.1,0.8-0.2,1.2-0.3c3.4-0.8,6.7-1.6,10.1-2.4c1.2-0.4,2.4-0.6,3.6-0.9
		c0.4-0.2,0.9-0.3,1.4-0.4c0.4-0.1,0.8-0.2,1.2-0.3c4.6-1,9.1-2.2,13.7-3.2c0.4-0.1,0.8-0.2,1.2-0.3c2.1-0.5,4.1-1,6.2-1.5
		c0-10.4,0-20.9,0-31.4c-1.1,0.3-2.2,0.6-3.3,0.8C128.36,82.018,127.96,82.118,127.56,82.218z"/>
	<path class="st1" d="M33.36,31.718c0.6-2.4,1.2-4.9,2.7-6.9c0.6-0.8,1.4-1.5,2.4-1.8c2.1-0.7,4.2-1.3,6.4-1.1
		c0.9,0,1.5,0.7,2.1,1.3c4.9-2.2,10-4,15.3-5.3c1.2-1.9,2.5-4,4.7-4.9c2.3-0.8,4.7,0.2,6.7,1.3c2.2,1.4,4.6,2.5,6.8,3.9
		c7.9,0.5,15.9,1.5,23.5,4.2c-0.9,0.7-1.6,1.8-2.3,2.8c1.3,0.5,2.7,0.8,4.1,1.1c5.5,1.2,11,2.6,16.5,3.9c1.6-2.7,3.1-5.4,4.7-8.1
		c-6.5-3.5-13.5-6.3-20.5-8.8c-11.7-3.9-23.9-6.6-36.2-6.6c-14.4,0.2-28.5,3.8-41.9,9c-4.8,1.9-9.7,3.9-14.2,6.2
		c3.6,6,7,12.1,10.6,18.2C27.36,37.118,30.26,34.218,33.36,31.718z"/>
	<path class="st2" d="M116.76,39.818c-3.4-1.2-6.9-2.4-10.3-3.7c0.6-0.7,1.2-1.4,1.8-2c-5.3-1.8-10.7-3.4-16.1-5.1
		c0.9-1.2,2.1-2.2,3.4-2.8c-4.7-1.1-9.5-1.8-14.3-2.3c-1.2,3-2.2,6-3.1,9.1c-0.6,2-0.9,4.2-0.8,6.3c-0.4-0.8-0.8-1.7-0.9-2.6
		c-0.3-2.7,0-5.5,0.7-8.2c0.4-1.2,0.9-2.4,1.3-3.6c0.2-1,0.2-2.2-0.5-3c-1.4-1.6-3.5-2.4-5.5-3.2c-1.3-0.5-2.6-1.2-4-1.4
		c-1.2-0.2-2.1,0.8-2.8,1.7c-3.5,4.4-6.4,9.3-9.3,14.2c0.8-2.6,1.7-5.1,2.4-7.7c-9.2,1.3-18,5.3-24.8,11.6c-4.9,4.4-9.7,9.2-13,14.9
		c0.9,1.3,1.8,2.8,1.9,4.5c-2.2,3-4.5,5.9-6.2,9.3c-1.7,3-2.4,6.4-3.6,9.6c-0.7,2-1.7,4-1.9,6.2c2.7-0.9,5.6-1.8,8.5-2
		c1.4-0.1,2.8-0.2,4,0.5c1.8,1.5,3.1,3.8,2.9,6.2c-1.5,0.2-3.3,0.9-3.8,2.5c-0.2,2.7,1.2,5.3,2.8,7.4c1.3,0.1,2.7,0.2,4.1,0
		c2.4-0.5,4.7-1.7,6.1-3.7c2.9-4,5-8.5,7.1-13c1.4-3.1,2.4-6.3,3.8-9.3c1.9-4.3,4.5-8.3,8.1-11.4c1.8-1.6,3.9-2.7,6-3.7
		c-3.1,0.6-5.9,1.8-8.6,3.3c2.9-2.6,6.1-5.1,9.8-6.4c2-0.7,4-0.1,5.6,1.1c3.4,2.4,6,5.7,8.5,9c-1.8-1.6-3.6-3.2-5.6-4.6
		c2.4,3.9,4.1,8.1,6.1,12.2c-3.5-1-7.2-0.3-10.5,1.1c-4.5,1.9-8.5,4.9-11.8,8.4s-6.1,7.4-9.4,10.8c-2.7,2.7-5.8,5-9.3,6.5
		c-2.5,1-5.1,2.1-7.8,2.2c0.6,0.5,1,1.2,1.8,1.3c1.3,0.2,2.7,0.2,4,0c1.9-0.6,3.7-1.3,5.5-2.1c7.3-3.3,14.1-7.6,20.6-12.2
		c-0.4-0.3-0.9-0.6-1.3-0.9c0.9-0.9,1.8-1.7,2.9-2.4c4-2.5,8.5-3.9,13.1-5.1c3-0.8,6.1-1.4,9.2-2c2-0.9,3.8-2.3,5.3-4
		c1.7-2,2.7-4.7,2.2-7.4c-0.6-4.1-1.5-8.1-2.3-12.1c2.2,3.3,4.4,6.8,5.5,10.8c0.5,1.5,0.3,3.1,0.3,4.7c-0.1,2.1-0.5,4.1-1.4,6
		c-1.2,2.4-3.1,4.3-5,6.1c-5.3,0.3-10.6,1-15.7,2.6c-3.2,1-6.3,2.3-8.9,4.3c0.9,0.6,1.5,1.4,1.9,2.4c-3.7,0.7-7.1,2.5-10.5,4.3
		c0.1,0.2,0.3,0.6,0.4,0.8c4.4-2.4,9.4-3.3,14.3-3.9c-0.8-1.3-1.8-2.6-2.6-3.9c6.4-3.3,13.9-3.6,21-3.3c1.1,0.2,2.3,0.4,3.4,0.8
		C99.96,68.918,108.36,54.418,116.76,39.818z M44.46,49.718c-3,2.4-6.2,4.4-9.6,6.1c1.5,1.1,3.5,1,5.2,0.3c1.9-0.7,3.3-2.4,3.9-4.3
		h0.2c0.1-0.4,0-1,0.3-1.3c0,0.5,0.1,1-0.2,1.4c-0.7,1.9-1.8,3.8-3.6,4.8c-1.6,1-3.5,1.4-5.3,2c-3.7,3-6.3,7.1-8,11.4
		c0.8-2.8,1.8-5.5,3.2-8.1c0.9-1.7,2-3.2,3.5-4.4c-1.9-1.3-4.3-1.4-6.5-1.2c1.2-0.4,2.5-0.9,3.8-1.2c7.4-2.7,13.6-7.8,19.2-13.2
		C48.66,44.618,46.86,47.518,44.46,49.718z M74.16,30.518c-0.3-1.5-0.5-3.5-2.2-4.1c-1.4-0.2-2.5,0.8-3.5,1.6
		c-2,2.1-3.6,4.5-5.5,6.7c1.1-5.2,4-9.7,7.3-13.7c2.1,0.8,4.7,1.7,5.5,4C76.26,27.018,75.16,28.918,74.16,30.518z"/>
	<path class="st0" d="M70.26,21.018c-3.3,4-6.2,8.5-7.3,13.7c1.9-2.2,3.5-4.6,5.5-6.7c1-0.8,2.1-1.8,3.5-1.6
		c1.7,0.6,1.9,2.6,2.2,4.1c1-1.6,2.1-3.5,1.6-5.5C74.96,22.718,72.36,21.818,70.26,21.018z"/>
	<path class="st0" d="M27.56,56.418c2.2-0.2,4.6-0.1,6.5,1.2c-1.5,1.2-2.6,2.7-3.5,4.4c-1.4,2.6-2.4,5.3-3.2,8.1
		c1.7-4.3,4.3-8.4,8-11.4c1.8-0.6,3.7-1,5.3-2c1.8-1,2.9-2.9,3.6-4.8c0.3-0.4,0.2-0.9,0.2-1.4c-0.3,0.3-0.2,0.9-0.3,1.3h-0.2
		c-0.6,1.9-2,3.6-3.9,4.3c-1.7,0.7-3.7,0.8-5.2-0.3c3.4-1.7,6.6-3.7,9.6-6.1c2.4-2.2,4.2-5.1,6.1-7.7c-5.6,5.4-11.8,10.5-19.2,13.2
		C30.06,55.518,28.76,56.018,27.56,56.418z"/>
	<path class="st2" d="M62.36,57.718c-2.5,0.7-4.7,2.2-6.6,4c-3,2.8-5.2,6.4-7.1,10.1c1.4,0.7,2.9,1.2,4.4,1c0.9-1.7,1.5-3.6,1.2-5.5
		c1.5,1.3,3.5,1.1,5.2,0.9c0.4-1.3,0.6-2.8,0-4.1c2,1.3,4.4,1.5,6.7,1.8c0.5-2,1.1-4,1.5-6C66.26,58.518,64.36,57.518,62.36,57.718z
		"/>
	<path class="st2" d="M70.56,67.018c-0.3-1.5-0.6-3-1.2-4.4c-0.1,0-0.3-0.1-0.4-0.1c-1.3,1.3-1.9,3.1-1.8,4.9
		C68.36,67.218,69.46,67.118,70.56,67.018z"/>
	<path class="st2" d="M65.86,67.718c-1.5-0.8-3.3-1.2-5-1.2c-0.1,1.1-0.3,2.2-0.6,3.4C61.96,68.918,63.86,68.218,65.86,67.718z"/>
	<path class="st2" d="M37.46,93.318c3.1-2,5.8-4.4,8.1-7.3c4.4-5.4,8.2-11.5,13.9-15.6c-1.3-0.8-2.7-1.3-4.2-1.4
		c-0.5,1.7-0.8,3.4-0.7,5.2c-1.6-0.4-3.3-0.5-4.9,0.1c-0.4,1.8-0.7,3.5-0.6,5.3c-1.2-0.2-2.4-0.3-3.6-0.3c-0.3,0.9-0.9,1.8-0.8,2.8
		c0,0.7,0.3,1.4,0.5,2.1c-0.6,0-1.3,0.1-1.9,0.2C41.76,87.618,39.86,90.618,37.46,93.318z"/>
	<path class="st2" d="M48.06,77.718c0.2-1.6,0.3-3.3,0.1-4.9c-0.8,1.7-1.6,3.4-2.2,5.2C46.66,78.018,47.76,78.518,48.06,77.718z"/>
	<path class="st1" d="M124.96,85.618c-0.9,0.2-1.7,0.9-2.1,1.7c-0.7,1.5,0.1,3.5,1.7,4.1c1.8,0.9,4.1-0.6,4.2-2.6
		C128.96,86.818,126.86,85.018,124.96,85.618z M127.96,89.418c-0.6,1.6-3,2-4,0.6c-1.2-1.2-0.5-3.3,1.1-3.7
		C126.86,85.718,128.76,87.718,127.96,89.418z"/>
	<path class="st0" d="M125.06,86.318c-1.6,0.4-2.3,2.5-1.1,3.7c1,1.4,3.4,1,4-0.6C128.76,87.718,126.86,85.718,125.06,86.318z
		 M126.26,90.018c-0.1-0.5-0.2-1-0.7-1.1c0,0.3,0,0.8,0,1.1c-0.2,0-0.7,0-0.9,0c-0.1-1-0.1-2-0.1-2.9c0.8,0.1,1.8-0.2,2.4,0.5
		c0,0.4-0.1,0.8-0.2,1.1c0.1,0.4,0.2,0.9,0.3,1.3C126.86,90.018,126.46,90.018,126.26,90.018z"/>
	<path class="st1" d="M126.96,87.618c-0.6-0.7-1.6-0.4-2.4-0.5c0,0.9,0,1.9,0.1,2.9c0.2,0,0.7,0,0.9,0c0-0.3,0-0.8,0-1.1
		c0.5,0.1,0.6,0.6,0.7,1.1c0.2,0,0.6,0,0.8,0c-0.1-0.4-0.2-0.9-0.3-1.3C126.86,88.418,126.96,88.018,126.96,87.618z M125.96,88.418
		c-0.4,0.3-1-0.4-0.5-0.7C125.86,87.418,126.46,88.118,125.96,88.418z"/>
	<path class="st0" d="M125.46,87.718c-0.5,0.3,0.1,1,0.5,0.7C126.46,88.118,125.86,87.418,125.46,87.718z"/>
	<path class="st1" d="M118.06,91.018c-1.7,0.4-3.5,0.7-4.8,1.7s-1.6,2.7-1.6,4.2c0,3.3,0,6.6,0,9.9c0,1.1,0.2,2.5,1.4,2.9
		c1.3,0.4,2.7,0,4-0.3c1.4-0.4,3-0.7,4.1-1.7c1-0.9,1.1-2.5,1.2-3.8c0-3.1,0-6.2,0-9.3c-0.1-1.1-0.1-2.2-0.8-3.1
		C120.66,90.618,119.26,90.818,118.06,91.018z M118.06,105.118c0.1,1-1.3,1.6-2.1,1c-0.2-3.3,0-6.7-0.1-10.1c-0.1-0.7,0.2-1.4,1-1.6
		c0.3-0.1,0.8-0.3,1,0.2c0.2,0.4,0.1,1,0.2,1.4C118.06,99.018,118.06,102.018,118.06,105.118z"/>
	<path class="st1" d="M110.46,104.918c-0.3-1-1.4-1.3-2.4-1.4c1-0.4,1.9-1.1,2.3-2.1c0.4-1.1,0.3-2.3,0.3-3.5
		c-0.1-1.1,0-2.4-0.9-3.3c-0.9-0.9-2.2-0.7-3.3-0.6c-2.2,0.3-4.3,0.9-6.5,1.4c0,5.9,0,11.8,0,17.8c1.4-0.3,2.8-0.6,4.2-1
		c0-2,0-4.1,0-6.1c0.7-0.1,1.9-0.6,2.2,0.4c0.2,1.7,0,3.5,0.1,5.2c1.3-0.3,2.5-0.6,3.8-0.9c0.5-0.1,0.4-0.7,0.4-1
		C110.56,108.118,110.86,106.518,110.46,104.918z M106.36,101.618c-0.1,1.1-1.4,1.2-2.2,1.5c0-1.9,0-3.7,0-5.6
		c0.7-0.1,1.3-0.2,2-0.3C106.66,98.618,106.46,100.118,106.36,101.618z"/>
	<path class="st0" d="M116.86,94.418c-0.8,0.2-1.1,0.9-1,1.6c0.1,3.4-0.1,6.8,0.1,10.1c0.8,0.6,2.2,0,2.1-1c0-3.1,0-6.1,0-9.1
		c-0.1-0.4,0-1-0.2-1.4C117.66,94.118,117.16,94.318,116.86,94.418z"/>
	<path class="st1" d="M95.66,96.518c-2.3,0.2-4.5,0.9-6.8,1.4c-0.1,5.9,0,11.9-0.1,17.7c1.4-0.4,2.8-0.7,4.2-1c0-1.7,0-3.4,0-5.1
		c1.9-0.4,4-0.8,5.3-2.4c1.3-1.5,0.9-3.6,1-5.5c0-1.5,0.2-3.1-0.7-4.4C97.86,96.418,96.66,96.418,95.66,96.518z M94.96,105.118
		c-0.1,1-1.3,1.1-2,1.3c0-2.1,0-4.2,0-6.3c0.7,0,1.6-0.5,2,0.1C95.06,101.818,95.06,103.518,94.96,105.118z"/>
	<path class="st0" d="M104.16,97.518c0,1.9,0,3.7,0,5.6c0.8-0.3,2.1-0.4,2.2-1.5c0.1-1.5,0.3-3-0.2-4.4
		C105.46,97.318,104.86,97.418,104.16,97.518z"/>
	<path class="st1" d="M81.06,107.618c-1.3-0.5-2.9,0.1-4.1-0.6c-0.5-0.7-0.3-1.6-0.3-2.4c0-1,1.3-1.5,2-1.1c0.3,0.7,0.2,1.5,0.2,2.2
		c1.3-0.3,2.5-0.6,3.7-0.9c0-1.1,0.1-2.2-0.2-3.3c-0.2-0.8-0.8-1.4-1.6-1.5c-1.5-0.2-3,0.2-4.5,0.6c-1.4,0.4-2.8,1.1-3.4,2.7
		c-0.5,1.5-0.4,3.1-0.4,4.6c0,0.9,0.1,2,1,2.5c1.5,0.9,3.4,0.1,4.9,0.9c0.5,0.9,0.3,2,0.3,3c0,0.9-1.1,1.2-1.8,1.2
		c-0.9-0.5-0.3-1.9-0.5-2.8c-1.3,0.3-2.6,0.6-3.9,0.9c0.1,1.4-0.1,2.9,0.4,4.2c0.3,0.9,1.4,1.3,2.3,1.2c1.4-0.2,2.8-0.5,4.2-0.9
		c1.6-0.5,3-1.7,3.3-3.3c0.3-1.7,0.3-3.5,0.1-5.2C82.66,108.718,81.96,107.818,81.06,107.618z"/>
	<path class="st0" d="M92.96,100.118c0,2.1,0,4.2,0,6.3c0.7-0.2,1.9-0.3,2-1.3c0.1-1.6,0.1-3.3,0-4.9
		C94.56,99.618,93.66,100.118,92.96,100.118z"/>
	<path class="st1" d="M71.46,102.018c-1.3,0.3-2.719,0.565-4.018,0.865c0,4.2,0.018,8.535,0.018,13.035c0,0.6,0,1.2-0.2,1.7
		c-0.3,0.5-1,0.6-1.6,0.5c-0.4-0.2-0.2-0.8-0.3-1.1c0-4.5,0.016-9.19,0.016-13.69c-1.2,0.2-4.216,0.908-4.216,0.908
		c0,12.6,0,8.683,0,12.683c0,1.1,0,2.3,0.5,3.4c0.3,0.8,1.1,1.2,1.9,1.2c1.5,0,3-0.3,4.4-0.8c1.3-0.4,2.5-1.2,3-2.5
		c0.6-1.5,0.5-3.2,0.5-4.8C71.46,109.618,71.46,105.818,71.46,102.018z"/>
	<path class="st3" d="M50.26,108.318c-0.7-1-2.1-0.9-3.1-0.8c-2.3,0.3-4.6,1-6.9,1.5c0,5.9,0,11.8,0,17.7c1.4-0.3,2.8-0.7,4.2-1
		c0-2,0-4.1,0-6.1c0.5-0.1,1-0.2,1.5-0.2c0.6,0.1,0.8,0.6,0.8,1.1c0,1.6-0.1,3.2,0,4.8c1.4-0.4,2.8-0.5,4.1-1c0.1-1.8,0.2-3.7,0-5.5
		c-0.2-1.2-1.4-1.6-2.5-1.6c0.9-0.5,1.9-1.1,2.3-2.2C51.399,112.198,50.63,108.932,50.26,108.318z M46.76,115.518
		c-0.2,1-1.5,1-2.2,1.2c-0.1-1.7-0.1-3.5-0.1-5.3c0.7-0.2,2.1-0.8,2.3,0.2C46.86,112.918,46.86,114.218,46.76,115.518z"/>
	<path class="st1" d="M51.06,109.749c0.798-0.173,1.922-0.358,2.7-0.53c0,4.9,0,9.7,0,14.6c1.4-0.3,2.8-0.6,4.2-1
		c0-4.9,0-9.7,0-14.6c0.9-0.3,1.9-0.5,2.8-0.7c0-1.1,0-2.1,0-3.2c-3.2,0.8-6.5,1.5-9.7,2.3
		C51.06,107.396,51.06,109.749,51.06,109.749z"/>
	<path class="st1" d="M34.66,128.218c1.4-0.3,2.8-0.6,4.2-1c0-5.9,0-11.8,0-17.7c-1.4,0.3-2.8,0.6-4.2,0.9
		C34.56,116.318,34.66,122.218,34.66,128.218z"/>
	<path class="st1" d="M28.26,127.018c-0.6-4.9-1-9.9-1.5-14.8c-1.4,0.3-2.9,0.6-4.3,1c0.8,5.7,1.6,11.4,2.5,17.1
		c2.2-0.5,4.4-1,6.6-1.5c0.8-6.1,1.7-12.2,2.5-18.3c-1.4,0.3-2.9,0.7-4.3,1C29.26,116.618,28.76,121.818,28.26,127.018z"/>
	<path class="st0" d="M44.46,111.418c0,1.8,0,3.6,0.1,5.3c0.7-0.2,2-0.2,2.2-1.2c0.1-1.3,0.1-2.6,0-3.9
		C46.56,110.618,45.16,111.218,44.46,111.418z"/>
	<path class="st1" d="M83.76,116.918c1.2-0.3,2.5-0.6,3.7-0.9c0-1.3,0-2.5,0-3.7c-1.2,0.3-2.5,0.6-3.7,0.9
		C83.76,114.418,83.76,115.618,83.76,116.918z"/>
	<path class="st1" d="M50.76,118.434c-0.3-1-1.4-1.3-2.4-1.4c1-0.4,1.9-1.1,2.3-2.1c0.4-1.1,0.3-2.3,0.3-3.5c-0.1-1.1,0-2.4-0.9-3.3
		c-0.9-0.9-2.2-0.7-3.3-0.6c-2.2,0.3-4.3,0.9-6.5,1.4c0,5.9,0,11.8,0,17.8c1.4-0.3,2.8-0.6,4.2-1c0-2,0-4.1,0-6.1
		c0.7-0.1,1.9-0.6,2.2,0.4c0.2,1.7,0,3.5,0.1,5.2c1.3-0.3,2.5-0.6,3.8-0.9c0.5-0.1,0.4-0.7,0.4-1
		C50.86,121.634,51.16,120.034,50.76,118.434z M46.66,115.134c-0.1,1.1-1.4,1.2-2.2,1.5c0-1.9,0-3.7,0-5.6c0.7-0.1,1.3-0.2,2-0.3
		C46.96,112.134,46.76,113.634,46.66,115.134z"/>
</g>
</svg>
