<?xml version="1.0" encoding="utf-8"?>
<!-- Generator: Adobe Illustrator 22.1.0, SVG Export Plug-In . SVG Version: 6.00 Build 0)  -->
<svg version="1.1" id="Layer_1" xmlns="http://www.w3.org/2000/svg" xmlns:xlink="http://www.w3.org/1999/xlink" x="0px" y="0px"
	 viewBox="0 0 113.4 113.4" style="enable-background:new 0 0 113.4 113.4;" xml:space="preserve">
<style type="text/css">
	.st0{fill:#FFFFFF;}
	.st1{fill:#C62B21;}
	.st2{display:none;fill:#A93A37;}
	.st3{fill:#CB2D1F;}
	.st4{fill:#B3B3B3;}
	.st5{display:none;fill:#2C2C2C;}
	.st6{fill:#E1232C;}
	.st7{fill:#A32D1F;}
</style>
<g>
	<path class="st0" d="M84.3,9.5l4.4,14.9l5.8,0.3l-1.1,5.2c0.1,0,0.3,0,0.4-0.1l3.1-0.5l0.8,3c0.2,0.7,0.3,1.2,0.5,1.8
		c0.2,0.8,0.4,1.6,0.8,2.7l3.6,11.1l-1.5,1.5c-0.4,0.4-0.8,0.8-1.2,1.1c1,0.6,2,1.2,3.3,2l1.1,0.7l7,21.5l-5.7-1
		c-6.1-1.1-13.3-2.4-20.7-3.3L83.3,78L66.2,88.3l-8.9,15.5l-9.2-15.6L30.7,78l-1.6-7.5c-7.7,1-14.7,2.1-21.2,3.3l-5.7,1l14.6-45.1
		l3,0.6c0.3,0.1,0.6,0.1,0.9,0.2l-1.2-5.8l4.9-0.3l6.2-14.9L41.9,22h6.9c-1.2-2.9-3.5-5.2-3.5-5.2c8.6,0.8,10.8,4.1,11.4,5.2h0.1H57
		c0.8-4-6.9-10.5-6.9-10.5c11.6,0.6,15.6,8.2,16.6,10.5h5.5L84.3,9.5 M85,6.9l-1.6,1.7L71.5,20.7h-4.1c-1.5-3.1-6.1-9.9-17.4-10.5
		L46,10l3.1,2.6c1.6,1.4,3.5,3.3,4.9,5.2c-1.9-1-4.6-1.9-8.6-2.3l-3.7-0.4l2.6,2.7c0,0,1.2,1.2,2.2,2.9h-4.1l-11-12.1L30.1,7l-0.8,2
		l-5.8,14.1l-4,0.2l-1.6,0.1l0.3,1.6l0.8,3.8L17,28.4l-1.2-0.2l-0.4,1.1L0.9,74.5l-0.7,2.2l2.2-0.4l5.7-1c6.2-1.1,12.7-2.1,19.9-3.1
		l1.3,6.2l0.1,0.6l0.5,0.3l17.1,10l9,15.3l1.2,2l1.2-2l8.7-15.2L84,79.2l0.5-0.3l0.1-0.6l1.3-6.2c6.9,0.9,13.6,2.1,19.3,3.1l5.7,1
		l2.2,0.4l-0.7-2.2l-7-21.5l-0.2-0.5l-0.4-0.3l-1.1-0.7c-0.7-0.4-1.3-0.8-1.8-1.1l1.4-1.4l0.6-0.6l-0.3-0.8l-3.6-11.1
		c-0.3-1.2-0.5-2-0.7-2.7c-0.2-0.6-0.3-1.2-0.5-1.8l-0.8-3l-0.3-1.2L96.7,28l-1.5,0.2l0.7-3.3l0.3-1.6l-1.6-0.1l-4.8-0.2l-4.2-14
		L85,6.9L85,6.9z"/>
	<path d="M88.8,24.4L84.3,9.5L72.1,22h-5.5c-1-2.3-5-9.9-16.6-10.5c0,0,7.8,6.5,6.9,10.5h-0.2h-0.1c-0.5-1.1-2.8-4.4-11.4-5.2
		c0,0,2.3,2.3,3.5,5.2h-6.9L30.5,9.5l-6.2,14.9l-4.9,0.3L30.7,78l26.2,15.3l0.1,0l0.1,0.5L83.3,78l11.2-53.3L88.8,24.4z"/>
	<polygon class="st1" points="86.5,27.8 85.3,23.9 82.9,16.1 74.5,25.7 72.8,27.5 41,27.5 39.4,25.5 31.4,15.9 28.1,24.2 26.7,27.8 
		24,27.8 33.8,75.5 56.9,89.5 57,89.4 57.1,89.5 80.1,75.5 90,27.7 	"/>
	<path class="st2" d="M57.8,68.9l-0.9,0c-7.8,0.2-15.6,0.6-23.3,1.1l-0.8,0.1l0.4,1.7l0.5,0c7.7-0.5,15.5-0.9,23.3-1.1l0.9,0l2.1,0
		c7.1,0.2,14.1,0.5,21,1.2l0.4-1.7c-7-0.6-14.2-1-21.4-1.2L57.8,68.9z"/>
	<path d="M104.3,53.4l-1.1-0.7c-1.3-0.8-2.3-1.4-3.3-2c0.4-0.3,0.7-0.7,1.2-1.1l1.5-1.5L98.9,37c-0.3-1.2-0.5-2-0.8-2.7
		c-0.2-0.6-0.3-1.2-0.5-1.8l-0.8-3l-3.1,0.5c-1.4,0.2-2.9,0.4-4.4,0.7c-10.3,1.5-22.1,3-30.3,3.2l-2.4,0c-5.9,0-11.8-0.3-17.6-0.8
		L37,32.8c-4.1-0.4-8.2-0.9-12.3-1.6c-1.7-0.3-3.3-0.6-4.9-0.9l-3-0.6L2.2,74.9l5.7-1c7.1-1.3,14.6-2.4,23.1-3.6l1.2-0.2l0.5,0
		l0.8-0.1c7.7-0.5,15.5-0.9,23.3-1.1l0.9,0l2.1,0c7.2,0.2,14.4,0.6,21.4,1.2c0.1,0,0.1,0,0.2,0l1.6,0.1l1.3,0.2
		c7.6,0.9,15,2.2,21.2,3.4l5.7,1L104.3,53.4z"/>
	<polygon points="66.2,88.3 57.3,79.7 48.1,88.2 57.3,103.7 	"/>
	<path class="st1" d="M56.5,65.5c0-3.4,0-6.8,0-10.2c0-6,0-12,0-18c-6,0-12-0.3-18-0.8l-1.9-0.2l-2,10l5.3,3.9l7.5,4.9L39,53.7
		l-7.7-4.6h0v0l0,0l0.1-0.3L33.8,36c-5-0.6-10-1.3-15-2.2C14.9,46,10.9,58.2,7,70.4c7.7-1.4,15.5-2.6,23.2-3.6
		c0.8-4,1.6-7.9,2.4-11.9c1,0,1.5-0.1,2.6-0.1c-0.7,3.9-1.4,7.8-2.2,11.7C40.8,66.1,48.7,65.7,56.5,65.5z"/>
	<path class="st3" d="M101.1,55.7l-6.7-2.7l-7.2-1.6l7.7-1c1.2-1,2.1-1.8,3.5-3.2c-1-3.1-2-6.1-3-9.2c-0.6-2.1-0.7-2.3-1.3-4.7
		c-10,1.5-25.1,3.7-35.1,3.9c0.2,6,0.3,12,0.5,18.1c0.1,3.4,0.2,6.8,0.3,10.3c7.3,0.2,14.5,0.6,21.8,1.2c-0.7-3.4-1.7-11.6-2.4-16.3
		l-4.9,3l-8.8,1.7l7.5-4.9l8.2-5.8l0.8,4.3l0,0c0.8,5.1,1.9,14.8,2.7,18.3c7.2,0.9,14.3,2.1,21.4,3.4
		C104.2,65.5,102.7,60.6,101.1,55.7z"/>
	<polygon points="62.5,68.6 58.1,72.2 53.6,68.6 	"/>
	<polygon class="st4" points="57.3,84.6 60.5,87.8 57.3,97.9 54,88 	"/>
	<polygon class="st5" points="57.3,84.6 60.5,87.8 57.3,97.9 54,88 	"/>
	<g>
		<path class="st6" d="M87.1,51.4l-1.7,0.3l8.6,2l7.3,2.9c-0.1-0.2-0.2-0.6-0.3-0.9l-6.7-2.7L87.1,51.4z"/>
		<path class="st6" d="M60.5,56.4c-0.2-6-0.3-12-0.5-18.1c9.8-0.2,24.3-2.3,34.3-3.8c-0.1-0.3-0.2-0.7-0.3-1.2
			c-10,1.5-25.1,3.7-35.1,3.9c0.2,6,0.3,12,0.5,18.1c0.1,3.4,0.2,6.8,0.3,10.3c0.4,0,0.8,0,1.1,0C60.7,62.5,60.6,59.4,60.5,56.4z"/>
		<path class="st6" d="M79.2,51.7c-0.1-0.6-0.1-0.8-0.2-1.3l-4.9,3l-8.7,1.7l-1.8,1.1l10.9-1.9L79.2,51.7z"/>
		<path class="st6" d="M82.9,49.9l-1.1-6L81,44.4l0.8,4.3l0,0c0.8,5.1,1.9,14.8,2.7,18.3c0.3,0,0.7,0.1,1,0.1
			C84.7,63.1,83.7,54.6,82.9,49.9z"/>
		<polygon class="st6" points="28.7,27.8 32.7,17.3 31.4,15.9 26.8,27.8 		"/>
		<polygon class="st6" points="24.3,27.8 24,27.8 24,27.8 		"/>
		<polygon class="st6" points="72.8,27.5 75.1,27.5 83.5,18 82.9,16.1 		"/>
		<polygon class="st6" points="32.7,70.1 33.8,75.5 50.7,85.8 51.7,84.8 35,74.5 33.9,70 		"/>
		<path class="st6" d="M35.6,47l1.9-9.2l1.9,0.2c5.7,0.5,11.4,0.8,17.1,0.8c0-0.5,0-1,0-1.5c-6,0-12-0.3-18-0.8l-1.9-0.2l-2,10
			L35.6,47z"/>
		<polygon class="st6" points="49.4,56.3 47.4,55.1 39,53.7 31.3,49.1 31,50.2 38.7,54.8 		"/>
		<path class="st6" d="M19.7,35.2c4.6,0.9,9.2,1.6,13.8,2.1l0.3-1.4c-5-0.6-10-1.3-15-2.2C14.9,46,10.9,58.2,7,70.4
			c0.5-0.1,1-0.2,1.5-0.3C12.2,58.5,16,46.9,19.7,35.2z"/>
		<path class="st6" d="M36.3,54.8l-1.1,0.1c0,0-1.5,8.3-2.2,11.7c0.4,0,0.8,0,1.2-0.1C34.8,63.1,36.3,54.8,36.3,54.8z"/>
	</g>
	<g>
		<path class="st7" d="M81.4,66.7c-0.1-0.4-0.2-0.9-0.3-1.5c-6.8-0.6-14-0.9-21.6-1c0,0.4,0,0.8,0,1.3
			C66.9,65.7,74.2,66.1,81.4,66.7z"/>
		<path class="st7" d="M84.4,67c7.2,0.9,14.3,2.1,21.4,3.4c-0.2-0.6-0.4-1.1-0.6-1.7c-6.2-1.3-13.3-2.4-21.1-3.2
			C84.3,66.1,84.3,66.6,84.4,67z"/>
		<path class="st7" d="M33,66.6c7.8-0.5,15.6-0.9,23.5-1.1c0-0.4,0-0.8,0-1.3c-8.1,0-15.9,0.3-23.2,1C33.2,65.6,33.1,66.1,33,66.6z"
			/>
		<path class="st7" d="M30.5,65.4c-8.6,0.8-16.4,2-23.1,3.5c-0.2,0.5-0.3,1-0.5,1.5c7.7-1.4,15.5-2.6,23.2-3.6
			C30.3,66.4,30.4,65.9,30.5,65.4z"/>
	</g>
	<path d="M55.8,75c0,0,3.9-1.1,6.3-1.6c0,0,6-1.6,6.8,0.7c0,0,1.6,2.7-5.2,2.6c0,0-5.1-0.1-11.6,0.6c0,0-2.4,0.2-4.8,0.8
		C47.3,78.2,50.7,76.4,55.8,75z"/>
	<path class="st7" d="M65.3,78.2c0,0,2.3-0.1,3.8-1.1c0.8-0.5,1.4-1.2,1.3-2.2c0,0,0.8,1.8-0.6,2.8C69.1,78.2,67.7,78.5,65.3,78.2z"
		/>
</g>
</svg>
