<?xml version="1.0" encoding="utf-8"?>
<!-- Generator: Adobe Illustrator 21.0.0, SVG Export Plug-In . SVG Version: 6.00 Build 0)  -->
<svg version="1.1" id="Layer_1" xmlns="http://www.w3.org/2000/svg" xmlns:xlink="http://www.w3.org/1999/xlink" x="0px" y="0px"
	 viewBox="0 0 296.3 296.3" style="enable-background:new 0 0 296.3 296.3;" xml:space="preserve">
<path d="M66.1,98.1c27.4-31.1,54.7-62.2,82-93.3C173,33.5,198.3,62,223.3,90.7c2.1,2.5,4.3,5,6.6,7.3
	c-32.7,51.2-58.4,106.9-75.2,165.3c-2.5,8.9-4.9,17.8-6.5,26.8c-10.3-45.4-26.9-89.3-47.5-131C90.3,138.1,78.8,117.7,66.1,98.1
	 M148.5,38.9C130.4,59.6,112,80.2,94,101.1c5.1,7.4,9.5,15.2,13.9,23c17,30.8,30.6,63.7,39.1,97.8c0.6,2.2,0.9,4.4,1.2,6.7
	c1.6-4.6,2.4-9.4,3.7-14c11.2-40.2,28.5-78.7,51.2-113.7C184.8,80.3,166.9,59.4,148.5,38.9z"/>
<path d="M0,251.1c22.2-28.9,44.4-58,66.7-86.9c25,27.7,46.4,58.7,62.4,92.5c5.4,11.3,9.8,22.9,13.6,34.8
	c-29.8-17.1-63-27.4-96.5-34.3C30.9,254.4,15.5,252.1,0,251.1 M29.9,240.3c29.7,2.6,59.1,10.6,85.5,24.6c-11.4-27.3-28-52-47.4-74.1
	C55.3,207.3,42.6,223.9,29.9,240.3z"/>
<path d="M229.6,164.3c22.4,28.9,44.5,57.9,66.7,86.9c-27.2,2-54.1,6.9-80.3,14.5c-21.3,6.5-42.4,14.2-61.7,25.6
	c-0.2,0-0.6,0-0.8,0.1C169.1,243.9,196.5,201.1,229.6,164.3 M228.4,190.9c-19.5,22-36.1,46.8-47.4,74c26.4-14,55.8-22.1,85.5-24.5
	C253.7,223.9,241.2,207.3,228.4,190.9z"/>
</svg>
